HIERARCHY
ROOT Pelvis
{
	OFFSET -0.217368 -24.078917 2.858379
	CHANNELS 6 Xposition Yposition Zposition Zrotation Yrotation Xrotation 
	JOINT Left_hip
	{
		OFFSET 5.858135 -8.228005 -1.766408
		CHANNELS 3 Zrotation Yrotation Xrotation
		JOINT Left_knee
		{
			OFFSET 4.345143 -38.646942 0.803700
			CHANNELS 3 Zrotation Yrotation Xrotation
			JOINT Left_ankle
			{
				OFFSET -1.479033 -42.687447 -3.742800
				CHANNELS 3 Zrotation Yrotation Xrotation
				JOINT Left_foot
				{
					OFFSET 4.105436 -6.028605 12.204244
					CHANNELS 3 Zrotation Yrotation Xrotation
					End Site
					{
						OFFSET 0.000000 0.000000 0.000000
					}
				}
			}
		}
	}
	JOINT Right_hip
	{
		OFFSET -6.030973 -9.051328 -1.354253
		CHANNELS 3 Zrotation Yrotation Xrotation
		JOINT Right_knee
		{
			OFFSET -4.325663 -38.368790 -0.484304
			CHANNELS 3 Zrotation Yrotation Xrotation
			JOINT Right_ankle
			{
				OFFSET 1.905555 -42.004566 -3.456167
				CHANNELS 3 Zrotation Yrotation Xrotation
				JOINT Right_foot
				{
					OFFSET -3.483987 -6.210554 13.032330
					CHANNELS 3 Zrotation Yrotation Xrotation
					End Site
					{
						OFFSET 0.000000 0.000000 0.000000
					}
				}
			}
		}
	}
	JOINT Spine1
	{
		OFFSET 0.443945 12.440353 -3.838522
		CHANNELS 3 Zrotation Yrotation Xrotation
		JOINT Spine2
		{
			OFFSET 0.448844 13.795640 2.682033
			CHANNELS 3 Zrotation Yrotation Xrotation
			JOINT Spine3
			{
				OFFSET -0.226460 5.603239 0.285504
				CHANNELS 3 Zrotation Yrotation Xrotation
				JOINT Neck
				{
					OFFSET -1.339018 21.163553 -3.346758
					CHANNELS 3 Zrotation Yrotation Xrotation
					JOINT Head
					{
						OFFSET 1.011321 8.893734 5.040987
						CHANNELS 3 Zrotation Yrotation Xrotation
						End Site
						{
							OFFSET 0.000000 0.000000 0.000000
						}
					}
				}
				JOINT Left_collar
				{
					OFFSET 7.170247 11.399971 -1.889817
					CHANNELS 3 Zrotation Yrotation Xrotation
					JOINT Left_shoulder
					{
						OFFSET 12.292140 4.520507 -1.904600
						CHANNELS 3 Zrotation Yrotation Xrotation
						JOINT Left_elbow
						{
							OFFSET 25.533188 -1.564902 -2.294648
							CHANNELS 3 Zrotation Yrotation Xrotation
							JOINT Left_wrist
							{
								OFFSET 26.570929 1.269810 -0.737473
								CHANNELS 3 Zrotation Yrotation Xrotation
								JOINT Left_palm
								{
									OFFSET 8.669054 -1.063602 -1.559429
									CHANNELS 3 Zrotation Yrotation Xrotation
									End Site
									{
										OFFSET 0.000000 0.000000 0.000000
									}
								}
							}
						}
					}
				}
				JOINT Right_collar
				{
					OFFSET -8.295364 11.247234 -2.370738
					CHANNELS 3 Zrotation Yrotation Xrotation
					JOINT Right_shoulder
					{
						OFFSET -11.322830 4.685326 -0.847207
						CHANNELS 3 Zrotation Yrotation Xrotation
						JOINT Right_elbow
						{
							OFFSET -26.012751 -1.436928 -3.126872
							CHANNELS 3 Zrotation Yrotation Xrotation
							JOINT Right_wrist
							{
								OFFSET -26.910841 0.679372 -0.602677
								CHANNELS 3 Zrotation Yrotation Xrotation
								JOINT Right_palm
								{
									OFFSET -8.875370 -0.865157 -1.010708
									CHANNELS 3 Zrotation Yrotation Xrotation
									End Site
									{
										OFFSET 0.000000 0.000000 0.000000
									}
								}
							}
						}
					}
				}
			}
		}
	}
}
MOTION
Frames: 16
Frame Time: 0.016667
-285.099670 73.230339 -156.954208 -176.290391 -58.659025 174.258715 10.024155 -0.175796 -15.232957 -17.519352 8.669767 49.620636 13.489205 24.524275 23.996592 0.000000 0.000000 0.000000 -1.818083 0.579910 -6.395425 3.603967 -0.327924 6.888432 -1.109016 -7.988672 15.229982 0.000000 0.000000 0.000000 8.335625 -0.530558 4.057240 -1.394228 0.884637 -17.136202 0.972772 9.491362 22.702454 3.595287 -1.973044 -6.954081 0.000000 0.000000 0.000000 -11.969916 -2.569576 -0.045860 -56.299162 2.413262 -7.443746 -18.721397 -25.767166 5.209465 0.000000 0.000000 0.000000 0.000000 0.000000 0.000000 12.096229 3.503584 0.427168 57.190108 4.598689 -2.927675 6.593937 30.979150 2.675316 0.000000 0.000000 0.000000 0.000000 0.000000 0.000000 
-288.774689 73.565147 -159.154800 -176.627160 -60.327071 176.033059 8.885429 -0.391352 -20.772835 -17.856058 7.352752 40.030849 15.617558 27.477600 19.952501 0.000000 0.000000 0.000000 -1.306564 0.328006 -3.360971 3.518578 -0.335355 4.392329 -1.324321 -8.131344 14.283108 0.000000 0.000000 0.000000 7.405795 -0.504134 4.194788 -1.533432 0.932832 -17.653725 2.097596 11.539579 22.301679 2.373472 -1.188350 -6.302736 0.000000 0.000000 0.000000 -11.586104 -0.395653 -0.998541 -56.194090 4.386117 -8.338702 -18.270932 -26.289609 5.213685 0.000000 0.000000 0.000000 0.000000 0.000000 0.000000 10.121161 4.368231 0.940881 56.255099 7.794179 -1.372754 4.306953 35.279198 2.408119 0.000000 0.000000 0.000000 0.000000 0.000000 0.000000 
-292.579254 73.512032 -161.209015 -177.164743 -60.220359 176.973263 7.320467 -0.722505 -23.023502 -15.013410 4.351019 26.208222 17.349097 29.072517 23.285808 0.000000 0.000000 0.000000 -1.269238 0.019740 0.109677 4.083162 -0.423482 2.660331 -1.381325 -7.703119 12.248922 0.000000 0.000000 0.000000 7.083785 -0.603721 5.302188 -2.465049 1.215974 -18.730474 2.947810 14.929219 22.360545 3.004591 -1.436879 -8.063635 0.000000 0.000000 0.000000 -11.095436 0.808814 -1.485466 -55.835271 5.585724 -8.824251 -18.148882 -25.445045 5.009540 0.000000 0.000000 0.000000 0.000000 0.000000 0.000000 10.066328 5.277075 1.347838 53.777554 10.624267 -0.056098 2.291706 37.954739 1.957646 0.000000 0.000000 0.000000 0.000000 0.000000 0.000000 
-296.607971 73.040413 -163.042053 -176.514570 -62.194235 177.310177 5.052576 -1.234551 -24.609043 -8.717038 1.505876 12.616432 18.648342 29.570599 29.232828 0.000000 0.000000 0.000000 -1.189617 -0.259480 3.200752 3.955710 -0.416409 0.671460 -3.020734 -10.682316 11.853962 0.000000 0.000000 0.000000 6.304813 -0.500705 4.676714 -2.248295 1.156078 -19.633104 3.691121 15.800271 23.500234 1.129683 -0.152814 -8.114296 0.000000 0.000000 0.000000 -11.233133 1.282763 -1.712723 -56.235988 5.740871 -8.970470 -16.798250 -23.925014 4.406006 0.000000 0.000000 0.000000 0.000000 0.000000 0.000000 9.068257 5.583951 1.527600 51.584908 13.570720 1.184876 1.279716 39.829081 1.718039 0.000000 0.000000 0.000000 0.000000 0.000000 0.000000 
-300.959625 72.265717 -164.718689 -174.135294 -62.182511 175.124768 4.400442 -1.336468 -24.017135 -3.831411 0.418512 5.740015 20.926789 30.920384 34.518056 0.000000 0.000000 0.000000 -0.721522 -0.492266 5.420023 4.710112 -0.505552 3.099210 -3.843487 -11.537194 8.159881 0.000000 0.000000 0.000000 6.664299 -0.519815 4.690175 -2.068991 1.105574 -19.685622 3.083531 17.302302 23.572772 -0.201193 0.853255 -9.575917 0.000000 0.000000 0.000000 -12.138511 2.466538 -2.359554 -55.310780 6.106382 -8.961486 -16.573907 -22.652381 4.115433 0.000000 0.000000 0.000000 0.000000 0.000000 0.000000 10.575618 6.253525 1.764170 49.242264 14.868037 1.617489 1.966423 42.085615 2.078792 0.000000 0.000000 0.000000 0.000000 0.000000 0.000000 
-305.688019 71.646912 -166.273163 -173.028293 -64.741198 173.545956 3.148568 -1.481466 -22.405412 -3.163963 0.316903 4.843257 20.622818 30.316652 36.417007 0.000000 0.000000 0.000000 -0.046524 -0.739264 7.404770 4.339669 -0.449465 7.997242 -5.676141 -15.018089 6.663112 0.000000 0.000000 0.000000 5.297727 -0.405082 4.151023 -1.318075 0.896208 -19.924362 2.731250 17.175970 24.967539 -0.764939 1.117761 -7.830288 0.000000 0.000000 0.000000 -13.423927 3.518524 -3.022246 -53.958932 6.069673 -8.688774 -15.659294 -20.861203 3.606638 0.000000 0.000000 0.000000 0.000000 0.000000 0.000000 12.216184 6.434878 1.788809 47.695088 16.096224 2.017297 1.964459 42.808377 2.118430 0.000000 0.000000 0.000000 0.000000 0.000000 0.000000 
-310.570343 71.472763 -167.526550 -172.773115 -67.378555 172.490068 2.791837 -1.448344 -20.961774 -4.547576 0.538574 6.557992 21.089164 30.673352 36.790244 0.000000 0.000000 0.000000 -1.522712 -0.697329 8.422162 6.774415 -1.012275 14.317891 -6.137559 -15.979413 6.890291 0.000000 0.000000 0.000000 4.052894 -0.295317 3.441248 -0.623571 0.687722 -19.208284 1.473235 16.995041 24.179640 -0.591274 0.997614 -7.806101 0.000000 0.000000 0.000000 -12.823583 2.882340 -2.642240 -55.138847 6.387754 -9.054984 -13.403804 -20.502926 3.134163 0.000000 0.000000 0.000000 0.000000 0.000000 0.000000 14.057640 6.338534 1.676577 47.913415 16.119410 2.040984 2.879890 41.887530 2.400926 0.000000 0.000000 0.000000 0.000000 0.000000 0.000000 
-315.183319 71.602310 -168.421432 -173.268012 -70.490574 172.971835 1.150046 -1.561752 -18.904727 -6.432643 0.873799 7.358498 20.092296 30.834885 30.433921 0.000000 0.000000 0.000000 -2.952506 -0.209374 3.744652 8.679195 -1.990591 27.647926 -4.761467 -14.015644 12.682691 0.000000 0.000000 0.000000 2.168737 -0.146483 2.158849 -1.390555 0.892706 -17.908403 1.574169 16.136908 22.440033 -0.857243 1.029603 -5.401542 0.000000 0.000000 0.000000 -12.882132 1.536309 -2.027486 -54.937260 4.576546 -8.205841 -11.623029 -18.301089 2.499875 0.000000 0.000000 0.000000 0.000000 0.000000 0.000000 14.523072 5.966214 1.475749 50.269442 14.654533 1.583878 5.491503 40.136601 3.195619 0.000000 0.000000 0.000000 0.000000 0.000000 0.000000 
-319.168427 72.141624 -169.070801 -173.765101 -74.996516 172.857487 -0.911055 -1.586164 -15.984221 -5.871752 0.766904 6.881617 17.088222 28.251399 27.001869 0.000000 0.000000 0.000000 -5.336785 0.266359 -2.682085 11.511294 -4.064153 42.011492 -4.767919 -14.987939 21.044150 0.000000 0.000000 0.000000 1.338550 -0.160708 2.858508 -2.946155 1.359428 -17.664654 1.068642 15.340411 21.206769 2.430586 -1.357380 -5.092747 0.000000 0.000000 0.000000 -12.364445 -0.086212 -1.220092 -54.492427 2.603314 -7.251825 -10.279363 -20.000572 2.507460 0.000000 0.000000 0.000000 0.000000 0.000000 0.000000 15.367236 5.781518 1.348333 52.925056 11.169047 0.175329 6.585146 40.640752 3.627798 0.000000 0.000000 0.000000 0.000000 0.000000 0.000000 
-322.628235 72.333221 -169.688080 -172.504477 -78.946641 171.409820 -1.505790 -1.348699 -13.018095 -6.246882 0.823999 6.551945 15.777663 27.402386 22.107340 0.000000 0.000000 0.000000 -6.385557 0.597503 -10.202383 10.496519 -4.368674 53.787764 -4.686548 -14.725924 19.733413 0.000000 0.000000 0.000000 0.575368 -0.144431 3.055821 -2.714383 1.289854 -17.113631 0.562191 13.595438 21.376049 2.323634 -1.344129 -4.490422 0.000000 0.000000 0.000000 -13.130562 -1.883407 -0.460250 -54.206381 1.210277 -6.591247 -10.388622 -25.175734 3.213355 0.000000 0.000000 0.000000 0.000000 0.000000 0.000000 16.638327 6.047987 1.430682 53.051985 10.287498 -0.212746 8.651385 38.280520 4.072019 0.000000 0.000000 0.000000 0.000000 0.000000 0.000000 
-325.732422 72.695915 -170.426514 -147.470998 -86.072130 146.499123 -2.340395 -1.182575 -10.785031 -3.420378 0.349464 6.488758 9.504371 19.721809 18.119846 0.000000 0.000000 0.000000 -5.374668 0.944636 -15.459473 10.208435 -4.299175 55.430415 -6.054325 -16.708997 17.725932 0.000000 0.000000 0.000000 1.829671 -0.225997 3.721689 -3.083615 1.404268 -16.873211 -0.755607 11.177511 20.260796 2.357173 -1.380905 -4.375579 0.000000 0.000000 0.000000 -13.050413 -2.187349 -0.310974 -53.134828 -2.670070 -4.757993 -11.781853 -30.564284 4.324210 0.000000 0.000000 0.000000 0.000000 0.000000 0.000000 17.272942 5.417471 1.074898 54.449014 7.453125 -1.492176 10.380772 37.350737 4.517094 0.000000 0.000000 0.000000 0.000000 0.000000 0.000000 
-328.599182 73.332718 -171.284149 -29.844719 -85.215807 28.359427 -2.949608 -0.886606 -7.845524 -1.538474 0.030344 6.681914 3.169080 10.165943 13.834076 0.000000 0.000000 0.000000 -4.137642 1.317061 -19.058214 5.026130 -0.806923 51.366228 -4.004126 -13.116604 15.771283 0.000000 0.000000 0.000000 1.849172 -0.329510 5.524131 -2.290932 1.161723 -17.690028 -1.703701 9.188200 21.057316 1.683794 -0.882927 -4.434272 0.000000 0.000000 0.000000 -13.966493 -2.041970 -0.457733 -54.114288 -6.586035 -3.097802 -12.333930 -36.756720 5.454940 0.000000 0.000000 0.000000 0.000000 0.000000 0.000000 18.783940 4.409223 0.458444 53.917363 5.418337 -2.388135 12.937776 34.871674 4.943400 0.000000 0.000000 0.000000 0.000000 0.000000 0.000000 
-331.260742 73.629532 -172.288254 -11.523263 -75.922530 9.623994 -2.899582 -0.700297 -6.281281 0.213615 -0.333478 8.511531 -0.615707 2.787062 9.583906 0.000000 0.000000 0.000000 -3.414838 1.403563 -18.803116 -1.523125 2.341187 38.059208 1.844879 -2.139103 13.737175 0.000000 0.000000 0.000000 2.407367 -0.429210 6.623207 -2.438712 1.208337 -18.755219 -2.102652 6.400562 23.443908 1.801496 -0.709153 -7.084363 0.000000 0.000000 0.000000 -13.446186 -3.195907 0.132741 -54.712134 -12.062840 -0.604539 -13.789665 -44.479500 7.328019 0.000000 0.000000 0.000000 0.000000 0.000000 0.000000 18.993648 2.501303 -0.583422 54.391378 3.393753 -3.318303 14.818065 33.222203 5.214246 0.000000 0.000000 0.000000 0.000000 0.000000 0.000000 
-333.851776 73.887917 -173.345276 -7.126838 -67.889921 5.894584 -2.527162 -0.769708 -7.032783 3.124732 -1.056546 11.368752 -5.318192 -7.191263 6.623400 0.000000 0.000000 0.000000 -3.275055 1.382206 -18.234463 -8.110389 3.739609 24.759678 10.051970 13.127015 14.479903 0.000000 0.000000 0.000000 2.337878 -0.460333 7.204902 -2.071589 1.100276 -18.563099 -1.829994 4.428850 22.366749 2.017401 -0.873027 -6.945223 0.000000 0.000000 0.000000 -13.849791 -3.120518 0.066971 -53.716091 -13.773372 0.176915 -21.616533 -50.246153 12.159707 0.000000 0.000000 0.000000 0.000000 0.000000 0.000000 18.782301 1.876748 -0.900697 55.067101 0.877630 -4.504880 15.531142 31.029668 5.015480 0.000000 0.000000 0.000000 0.000000 0.000000 0.000000 
-336.433258 73.931282 -174.423904 -2.999500 -57.855319 1.747358 -2.716491 -0.896951 -8.050508 5.925613 -1.898789 14.109865 -9.947892 -15.309460 7.722906 0.000000 0.000000 0.000000 -5.835898 0.856920 -14.735559 -9.537397 3.131097 16.603691 16.700255 21.133153 20.082832 0.000000 0.000000 0.000000 1.465493 -0.397886 7.201150 -0.852472 0.724341 -17.489538 -2.325809 2.249136 22.502930 0.010769 0.650216 -8.694668 0.000000 0.000000 0.000000 -13.195528 -2.987295 0.052967 -55.031998 -17.384666 1.920516 -28.409838 -53.254949 16.554564 0.000000 0.000000 0.000000 0.000000 0.000000 0.000000 18.755484 1.590359 -1.051477 56.015298 -0.222892 -5.101465 14.032664 29.524937 4.369144 0.000000 0.000000 0.000000 0.000000 0.000000 0.000000 
-338.997833 73.824333 -175.595184 -0.793129 -49.824846 1.032641 -2.508784 -1.090967 -9.859917 6.583378 -2.242322 16.035354 -11.366532 -19.163280 6.365305 0.000000 0.000000 0.000000 -8.339232 0.514881 -11.924991 -6.294520 1.897924 12.655069 15.128895 18.520593 19.853458 0.000000 0.000000 0.000000 2.151354 -0.466805 7.535688 -0.905256 0.760680 -18.721645 -2.055326 2.618287 23.478540 -2.201323 2.197768 -10.134757 0.000000 0.000000 0.000000 -15.355249 -4.061433 0.419119 -53.163523 -18.537735 2.343779 -30.461478 -54.753505 18.220651 0.000000 0.000000 0.000000 0.000000 0.000000 0.000000 20.166145 1.684622 -1.129621 54.889382 -1.339069 -5.486113 14.310842 28.885362 4.330219 0.000000 0.000000 0.000000 0.000000 0.000000 0.000000 
